<svg width="25" height="25" viewBox="0 0 25 25" fill="none" xmlns="http://www.w3.org/2000/svg">
<path fill-rule="evenodd" clip-rule="evenodd" d="M8.05273 1.072C9.33236 1.01309 9.74036 1 13 1C16.2596 1 16.6676 1.01418 17.9462 1.072C19.2247 1.12982 20.0975 1.33382 20.8611 1.62945C21.6607 1.93164 22.3862 2.404 22.9862 3.01491C23.5971 3.61382 24.0684 4.33818 24.3695 5.13891C24.6662 5.90255 24.8691 6.77527 24.928 8.05164C24.9869 9.33345 25 9.74145 25 13C25 16.2596 24.9858 16.6676 24.928 17.9473C24.8702 19.2236 24.6662 20.0964 24.3695 20.86C24.0684 21.6608 23.5963 22.3864 22.9862 22.9862C22.3862 23.5971 21.6607 24.0684 20.8611 24.3695C20.0975 24.6662 19.2247 24.8691 17.9484 24.928C16.6676 24.9869 16.2596 25 13 25C9.74036 25 9.33236 24.9858 8.05273 24.928C6.77636 24.8702 5.90364 24.6662 5.14 24.3695C4.33919 24.0683 3.61362 23.5963 3.01382 22.9862C2.40332 22.3869 1.93089 21.6617 1.62945 20.8611C1.33382 20.0975 1.13091 19.2247 1.072 17.9484C1.01309 16.6665 1 16.2585 1 13C1 9.74036 1.01418 9.33236 1.072 8.05382C1.12982 6.77527 1.33382 5.90255 1.62945 5.13891C1.93133 4.33827 2.40413 3.61307 3.01491 3.01382C3.61386 2.40346 4.3387 1.93103 5.13891 1.62945C5.90255 1.33382 6.77527 1.13091 8.05164 1.072H8.05273ZM17.8491 3.232C16.5836 3.17418 16.204 3.16218 13 3.16218C9.796 3.16218 9.41636 3.17418 8.15091 3.232C6.98036 3.28545 6.34545 3.48073 5.92218 3.64545C5.36255 3.86364 4.96218 4.12218 4.54218 4.54218C4.14405 4.92951 3.83765 5.40104 3.64545 5.92218C3.48073 6.34545 3.28545 6.98036 3.232 8.15091C3.17418 9.41636 3.16218 9.796 3.16218 13C3.16218 16.204 3.17418 16.5836 3.232 17.8491C3.28545 19.0196 3.48073 19.6545 3.64545 20.0778C3.83745 20.5982 4.144 21.0705 4.54218 21.4578C4.92945 21.856 5.40182 22.1625 5.92218 22.3545C6.34545 22.5193 6.98036 22.7145 8.15091 22.768C9.41636 22.8258 9.79491 22.8378 13 22.8378C16.2051 22.8378 16.5836 22.8258 17.8491 22.768C19.0196 22.7145 19.6545 22.5193 20.0778 22.3545C20.6375 22.1364 21.0378 21.8778 21.4578 21.4578C21.856 21.0705 22.1625 20.5982 22.3545 20.0778C22.5193 19.6545 22.7145 19.0196 22.768 17.8491C22.8258 16.5836 22.8378 16.204 22.8378 13C22.8378 9.796 22.8258 9.41636 22.768 8.15091C22.7145 6.98036 22.5193 6.34545 22.3545 5.92218C22.1364 5.36255 21.8778 4.96218 21.4578 4.54218C21.0705 4.14408 20.5989 3.83768 20.0778 3.64545C19.6545 3.48073 19.0196 3.28545 17.8491 3.232V3.232ZM11.4673 16.6993C12.3233 17.0556 13.2764 17.1037 14.1639 16.8353C15.0514 16.567 15.8182 15.9988 16.3334 15.2279C16.8485 14.457 17.0801 13.5311 16.9884 12.6085C16.8968 11.6858 16.4876 10.8236 15.8309 10.1691C15.4123 9.7507 14.9061 9.43034 14.3487 9.23107C13.7914 9.0318 13.1968 8.95858 12.6078 9.01667C12.0188 9.07477 11.45 9.26274 10.9423 9.56705C10.4347 9.87136 10.0008 10.2844 9.67197 10.7766C9.34312 11.2687 9.12748 11.8276 9.04056 12.413C8.95365 12.9985 8.99762 13.596 9.16932 14.1624C9.34101 14.7288 9.63616 15.2501 10.0335 15.6888C10.4309 16.1275 10.9205 16.4726 11.4673 16.6993ZM8.63855 8.63855C9.2113 8.06579 9.89126 7.61146 10.6396 7.30149C11.3879 6.99151 12.19 6.83197 13 6.83197C13.81 6.83197 14.6121 6.99151 15.3604 7.30148C16.1087 7.61146 16.7887 8.06579 17.3615 8.63855C17.9342 9.2113 18.3885 9.89126 18.6985 10.6396C19.0085 11.3879 19.168 12.19 19.168 13C19.168 13.81 19.0085 14.6121 18.6985 15.3604C18.3885 16.1087 17.9342 16.7887 17.3615 17.3615C16.2047 18.5182 14.6359 19.168 13 19.168C11.3641 19.168 9.79528 18.5182 8.63855 17.3615C7.48182 16.2047 6.83197 14.6359 6.83197 13C6.83197 11.3641 7.48182 9.79528 8.63855 8.63855V8.63855ZM20.536 7.75055C20.6779 7.61666 20.7916 7.45565 20.8702 7.27706C20.9487 7.09847 20.9907 6.90593 20.9935 6.71083C20.9964 6.51574 20.9601 6.32205 20.8867 6.14125C20.8134 5.96044 20.7045 5.79619 20.5665 5.65822C20.4285 5.52026 20.2643 5.41137 20.0835 5.33802C19.9027 5.26467 19.709 5.22834 19.5139 5.23118C19.3188 5.23403 19.1263 5.27599 18.9477 5.35458C18.7691 5.43317 18.6081 5.5468 18.4742 5.68873C18.2138 5.96476 18.0712 6.33141 18.0768 6.71083C18.0823 7.09026 18.2355 7.4526 18.5038 7.72092C18.7721 7.98924 19.1345 8.14243 19.5139 8.14796C19.8933 8.15349 20.26 8.01093 20.536 7.75055V7.75055Z" fill="white"/>
</svg>
