<svg width="174" height="53" viewBox="0 0 174 53" fill="none" xmlns="http://www.w3.org/2000/svg">
<path d="M72.4118 36.0135C71.5067 36.0135 70.6654 35.8569 69.888 35.5436C69.1106 35.2187 68.426 34.7719 67.8342 34.2034C67.254 33.6232 66.7957 32.956 66.4592 32.2018C66.1343 31.4359 65.9718 30.6121 65.9718 29.7302C65.9718 28.8483 66.1343 28.0303 66.4592 27.2761C66.7957 26.5102 67.254 25.843 67.8342 25.2744C68.426 24.6943 69.1106 24.2475 69.888 23.9342C70.6654 23.6093 71.5067 23.4469 72.4118 23.4469C73.3168 23.4469 74.1581 23.6093 74.9355 23.9342C75.7246 24.2475 76.4092 24.6943 76.9894 25.2744C77.5811 25.843 78.0395 26.5102 78.3644 27.2761C78.6893 28.0303 78.8517 28.8483 78.8517 29.7302C78.8517 30.6121 78.6893 31.4359 78.3644 32.2018C78.0395 32.956 77.5811 33.6232 76.9894 34.2034C76.4092 34.7719 75.7246 35.2187 74.9355 35.5436C74.1581 35.8569 73.3168 36.0135 72.4118 36.0135ZM72.4118 33.6986C72.9687 33.6986 73.4793 33.6 73.9434 33.4027C74.4076 33.1939 74.8137 32.9154 75.1618 32.5673C75.5099 32.2076 75.7826 31.784 75.9799 31.2967C76.1771 30.8093 76.2757 30.2872 76.2757 29.7302C76.2757 29.1616 76.1771 28.6395 75.9799 28.1637C75.7826 27.6764 75.5099 27.2586 75.1618 26.9105C74.8137 26.5508 74.4076 26.2723 73.9434 26.0751C73.4793 25.8662 72.9687 25.7618 72.4118 25.7618C71.8664 25.7618 71.3616 25.8662 70.8975 26.0751C70.4334 26.2723 70.0272 26.5508 69.6791 26.9105C69.331 27.2586 69.0583 27.6764 68.8611 28.1637C68.6638 28.6395 68.5652 29.1558 68.5652 29.7128C68.5652 30.2814 68.6638 30.8093 68.8611 31.2967C69.0583 31.784 69.331 32.2076 69.6791 32.5673C70.0272 32.9154 70.4334 33.1939 70.8975 33.4027C71.3616 33.6 71.8664 33.6986 72.4118 33.6986ZM80.6005 35.8221V23.6383H86.7098C87.5105 23.6383 88.2125 23.8008 88.8158 24.1257C89.4308 24.4506 89.9124 24.9031 90.2605 25.4833C90.6086 26.0519 90.7826 26.7133 90.7826 27.4675C90.7826 28.1869 90.6086 28.8309 90.2605 29.3995C89.9124 29.9681 89.4308 30.4148 88.8158 30.7397C88.2009 31.0646 87.4988 31.2271 86.7098 31.2271H83.1243V35.8221H80.6005ZM83.1243 29.1384H86.4313C86.9767 29.1384 87.4118 28.9876 87.7367 28.6859C88.0732 28.3842 88.2415 27.9839 88.2415 27.4849C88.2415 26.9744 88.0732 26.5682 87.7367 26.2665C87.4118 25.9649 86.9767 25.814 86.4313 25.814H83.1243V29.1384ZM98.4177 36.0135C97.5127 36.0135 96.6714 35.8569 95.894 35.5436C95.1165 35.2187 94.4319 34.7719 93.8401 34.2034C93.26 33.6232 92.8016 32.956 92.4651 32.2018C92.1402 31.4359 91.9778 30.6121 91.9778 29.7302C91.9778 28.8483 92.1402 28.0303 92.4651 27.2761C92.8016 26.5102 93.26 25.843 93.8401 25.2744C94.4319 24.6943 95.1165 24.2475 95.894 23.9342C96.6714 23.6093 97.5127 23.4469 98.4177 23.4469C99.3228 23.4469 100.164 23.6093 100.941 23.9342C101.731 24.2475 102.415 24.6943 102.995 25.2744C103.587 25.843 104.045 26.5102 104.37 27.2761C104.695 28.0303 104.858 28.8483 104.858 29.7302C104.858 30.6121 104.695 31.4359 104.37 32.2018C104.045 32.956 103.587 33.6232 102.995 34.2034C102.415 34.7719 101.731 35.2187 100.941 35.5436C100.164 35.8569 99.3228 36.0135 98.4177 36.0135ZM98.4177 33.6986C98.9747 33.6986 99.4853 33.6 99.9494 33.4027C100.414 33.1939 100.82 32.9154 101.168 32.5673C101.516 32.2076 101.789 31.784 101.986 31.2967C102.183 30.8093 102.282 30.2872 102.282 29.7302C102.282 29.1616 102.183 28.6395 101.986 28.1637C101.789 27.6764 101.516 27.2586 101.168 26.9105C100.82 26.5508 100.414 26.2723 99.9494 26.0751C99.4853 25.8662 98.9747 25.7618 98.4177 25.7618C97.8724 25.7618 97.3676 25.8662 96.9035 26.0751C96.4393 26.2723 96.0332 26.5508 95.6851 26.9105C95.337 27.2586 95.0643 27.6764 94.867 28.1637C94.6698 28.6395 94.5712 29.1558 94.5712 29.7128C94.5712 30.2814 94.6698 30.8093 94.867 31.2967C95.0643 31.784 95.337 32.2076 95.6851 32.5673C96.0332 32.9154 96.4393 33.1939 96.9035 33.4027C97.3676 33.6 97.8724 33.6986 98.4177 33.6986ZM106.607 35.8221V23.6383H112.716C113.516 23.6383 114.218 23.8008 114.822 24.1257C115.437 24.4506 115.918 24.9031 116.266 25.4833C116.615 26.0519 116.789 26.7133 116.789 27.4675C116.789 28.1869 116.615 28.8309 116.266 29.3995C115.918 29.9681 115.437 30.4148 114.822 30.7397C114.207 31.0646 113.505 31.2271 112.716 31.2271H109.13V35.8221H106.607ZM109.13 29.1384H112.437C112.983 29.1384 113.418 28.9876 113.743 28.6859C114.079 28.3842 114.247 27.9839 114.247 27.4849C114.247 26.9744 114.079 26.5682 113.743 26.2665C113.418 25.9649 112.983 25.814 112.437 25.814H109.13V29.1384ZM122.303 35.8221V23.6383H123.556L128.099 33.2287L132.625 23.6383H133.878V35.8221H133.077V24.4042L128.099 34.9518L123.104 24.439V35.8221H122.303ZM136.768 35.8221V23.6383H145.192V24.3868H137.569V29.2951H142.547V30.0435H137.569V35.0736H145.262V35.8221H136.768ZM148.039 35.0736H151.068C151.845 35.0736 152.564 34.9402 153.226 34.6733C153.899 34.4064 154.479 34.0351 154.966 33.5594C155.465 33.072 155.854 32.5034 156.132 31.8536C156.411 31.2038 156.55 30.496 156.55 29.7302C156.55 28.9644 156.411 28.2565 156.132 27.6068C155.854 26.957 155.465 26.3942 154.966 25.9184C154.479 25.4311 153.899 25.054 153.226 24.7871C152.564 24.5202 151.845 24.3868 151.068 24.3868H148.039V35.0736ZM147.238 35.8221V23.6383H150.963C151.926 23.6383 152.796 23.795 153.574 24.1083C154.363 24.41 155.042 24.8335 155.61 25.3789C156.179 25.9242 156.614 26.5682 156.916 27.3109C157.217 28.0535 157.368 28.8599 157.368 29.7302C157.368 30.6005 157.217 31.4069 156.916 32.1495C156.614 32.8922 156.179 33.5362 155.61 34.0815C155.042 34.6269 154.363 35.0562 153.574 35.3695C152.796 35.6712 151.926 35.8221 150.963 35.8221H147.238ZM159.646 35.8221V23.6383H160.447V35.8221H159.646ZM162.029 35.8221L167.112 23.6383H168.104L173.169 35.8221H172.299L170.61 31.697H164.571L162.865 35.8221H162.029ZM164.867 30.9834H170.314L167.599 24.3868L164.867 30.9834Z" fill="white"/>
<path d="M31.8063 5.59647C29.945 5.59647 22.5505 6.34351 19.6257 10.5599C18.7647 11.7881 31.2619 11.1803 29.0714 12.5858C26.425 14.2825 20.2081 17.0427 14.5229 16.4603C13.7506 16.3843 12.8769 16.397 12.2185 16.8655C11.6867 17.2453 11.4461 17.8531 11.3575 18.4735C11.1296 20.2082 11.826 22.0695 12.4211 23.6649C13.2188 25.8047 14.2064 27.8559 14.9788 30.0084C15.0421 30.1857 15.1054 30.363 15.1054 30.5529C15.1054 30.7428 15.0294 30.9327 14.8775 31.034C14.6242 31.186 14.3077 31.0467 14.0545 30.8948C13.0542 30.287 12.1679 29.502 11.2309 28.7802C10.7117 28.3751 10.1799 27.9952 9.5975 27.6787C9.14168 27.4254 8.34399 26.881 7.83751 27.2228C7.55895 27.4128 7.49565 27.8053 7.48298 28.1471C7.3437 30.7555 7.72356 33.3891 8.5719 35.8582C9.2683 37.9094 10.2686 39.8466 11.4968 41.6193C12.7376 43.4173 14.2191 45.038 15.8778 46.4688C17.5365 47.8996 19.3851 49.1278 21.3477 50.1027C23.3102 51.0777 25.4121 51.7994 27.5646 52.2172C28.9701 52.4831 30.4008 52.6351 31.8316 52.6351C44.8226 52.6351 55.3446 42.1131 55.3446 29.1221C55.3446 16.1311 44.7973 5.59647 31.8063 5.59647ZM31.8063 41.7586C24.817 41.7586 19.1572 36.0988 19.1572 29.1094C19.1572 22.1201 24.817 16.4603 31.8063 16.4603C38.7956 16.4603 44.4555 22.1201 44.4555 29.1094C44.4555 36.0988 38.7956 41.7586 31.8063 41.7586Z" fill="white"/>
<path d="M8.67331 10.636C9.95215 10.636 11.0031 9.59775 11.0031 8.30624C11.0031 7.0274 9.96482 5.97647 8.67331 5.97647C7.38181 5.97647 6.3562 7.0274 6.3562 8.30624C6.3562 9.58509 7.39447 10.636 8.67331 10.636Z" fill="white"/>
<path d="M9.06596 18.8157C9.06596 17.7268 8.17964 16.8405 7.09072 16.8405C6.0018 16.8405 5.11548 17.7268 5.11548 18.8157C5.11548 19.9046 6.0018 20.7909 7.09072 20.7909C8.17964 20.7909 9.06596 19.9046 9.06596 18.8157Z" fill="white"/>
<path d="M17.3846 2.72229C18.1316 2.72229 18.752 2.11452 18.752 1.35481C18.752 0.595105 18.1316 0 17.3846 0C16.6375 0 16.0171 0.607767 16.0171 1.36748C16.0171 2.12718 16.6249 2.72229 17.3846 2.72229Z" fill="white"/>
<path d="M3.79848 25.5517C4.32994 25.5517 4.76078 25.1208 4.76078 24.5894C4.76078 24.0579 4.32994 23.6271 3.79848 23.6271C3.26702 23.6271 2.83618 24.0579 2.83618 24.5894C2.83618 25.1208 3.26702 25.5517 3.79848 25.5517Z" fill="white"/>
<path d="M1.64603 9.2811C0.734385 9.2811 0 10.0155 0 10.9271C0 11.8388 0.734385 12.5732 1.64603 12.5732C2.55768 12.5732 3.29207 11.8388 3.29207 10.9271C3.29207 10.0155 2.54502 9.2811 1.64603 9.2811Z" fill="white"/>
<path d="M17.3846 11.231C17.9231 11.231 18.3596 10.7945 18.3596 10.2561C18.3596 9.7176 17.9231 9.2811 17.3846 9.2811C16.8462 9.2811 16.4097 9.7176 16.4097 10.2561C16.4097 10.7945 16.8462 11.231 17.3846 11.231Z" fill="white"/>
<path d="M37.2393 31.3112C38.457 28.3715 37.0611 25.0014 34.1214 23.7837C31.1818 22.566 27.8116 23.962 26.5939 26.9016C25.3763 29.8413 26.7722 33.2114 29.7119 34.4291C32.6515 35.6468 36.0217 34.2508 37.2393 31.3112Z" fill="white"/>
</svg>
